<svg version="1.2" xmlns="http://www.w3.org/2000/svg" viewBox="0 0 115 50" width="115" height="50">
	<title>Nytt projekt</title>
	<style>
		.s0 { fill: #175b68 } 
	</style>
	<path id="Petly" class="s0" aria-label="Petly"  d="m6.2 34.8q-1.4-0.1-2.3-0.6-0.8-0.6-1.3-1.3-0.4-0.7-0.6-1.3-0.1-0.5-0.1-0.5-0.1-1.4-0.2-3.6-0.1-2.1-0.1-4.7 0-2.6 0-5.3 0-2.8 0.1-5.4 0.1-2.7 0.3-5.1 0 0 0-0.4 0.1-0.4 0.4-0.9 0.3-0.6 1.1-1.1 0.7-0.5 2.1-0.8 5.9-0.4 10.2 0.1 4.4 0.5 6.7 2.8 2.3 2.2 3.1 5 0.8 2.8 0 5.5-0.7 2.7-2.9 4.8-0.9 0.9-2.4 1.6-1.4 0.7-3.1 1.2-1.7 0.4-3.6 0.5-1.9 0.1-3.9-0.2l0.2 6.7q0 0-0.2 0.6 0 0.4-0.4 1-0.4 0.6-1.2 1-0.7 0.5-1.9 0.4zm3.5-16.9q2.1 0.2 3.5 0.1 1.5-0.2 2.4-0.7 0.9-0.5 1.3-1.3 0.4-0.8 0.5-1.7 0-1.4-0.6-2.2-0.5-0.9-1.5-1.3-1-0.5-2.4-0.6-1.3-0.1-3 0.1-0.2 1.9-0.3 3.9 0 1.9 0.1 3.7zm27.2 17.6q-3.1-0.6-5.2-1.8-1.9-1.3-3-3-1.1-1.7-1.5-3.7-0.4-1.9-0.4-3.8 0-2.5 0.8-4.7 0.9-2.3 2.5-4 1.8-1.8 4-2.7 2.4-1 5.2-0.8 2.8 0.2 4.7 1.1 1.9 0.9 3 2.3 1.1 1.3 1.6 2.8 0.5 1.5 0.6 2.9 0 2.3-1.2 4.2-1.3 1.9-4.2 2.6-0.8 0.2-1.8 0.3-1 0-2.1 0-1 0-2.1 0-1-0.1-1.8-0.2-0.8-0.1-1.3-0.1-0.5-0.1-0.5-0.1 0.2 0.5 0.6 1.2 0.5 0.6 1.4 1.1 1 0.5 2.5 0.5 1.9-0.1 3.1-0.2 1.2-0.1 2-0.2 0.7-0.1 1-0.2 0.3 0 0.3 0 0 0 0.4 0 0.4 0 0.9 0 0.7 0.1 1.3 0.5 0.6 0.3 1 1 0.5 0.7 0.5 1.3-0.1 0.6-0.4 1.1-0.2 0.4-0.5 0.6-0.3 0.2-0.3 0.2 0 0-1 0.4-1 0.4-2.6 0.9-1.6 0.5-3.6 0.7-1.9 0.2-3.9-0.2zm-2.4-13.7l5.8-0.1q0 0 0.2 0.1 0.2-0.1 0.5-0.2 0.4-0.1 0.7-0.3 0.3-0.2 0.5-0.6 0.2-0.4 0.2-1 0-0.9-0.4-1.5-0.3-0.7-1.2-1-0.8-0.3-2.3-0.2-0.9 0.1-1.7 0.6-0.7 0.5-1.3 1.3-0.6 0.8-0.9 1.6-0.2 0.8-0.1 1.3zm26.7 13.2q-1.4 0-2.3-0.5-0.9-0.5-1.4-1.3-0.4-0.7-0.7-1.2-0.1-0.6-0.1-0.6-0.2-2.1-0.4-4.5-0.1-2.4-0.1-5.1-0.1-2.6 0-5.2 0.1-2.7 0.2-5.3 0.1-2.6 0.3-4.9 0 0 0.1-0.4 0.2-0.5 0.6-1 0.4-0.6 1.2-0.9 0.7-0.4 2-0.3 1.4 0.1 2.2 0.7 0.8 0.6 1.2 1.3 0.4 0.7 0.5 1.3 0.2 0.5 0.2 0.5-0.1 1.8-0.2 4.1 0 2.3-0.1 4.9 0 2.5 0 5.2 0 2.6 0 5.2 0.1 2.6 0.2 5 0 0-0.1 0.5 0 0.4-0.4 1-0.3 0.6-1 1.1-0.7 0.4-1.9 0.4zm6.8-16.6q-3.8-0.1-7.2-0.2-3.3-0.1-6-0.1 0 0-0.6-0.1-0.6-0.1-1.4-0.4-0.8-0.3-1.5-0.9-0.6-0.7-0.7-1.8-0.2-1 0.2-1.6 0.4-0.7 1-1 0.6-0.3 1-0.4 0.5-0.2 0.5-0.2 0.4 0 1.4 0 1.1-0.1 2.5-0.1 1.5-0.1 3.2-0.1 1.8 0 3.5 0 1.7-0.1 3.3-0.1 0 0 0.4 0.1 0.5 0 1.2 0.2 0.7 0.2 1.4 0.6 0.7 0.4 1.1 1.1 0.5 0.7 0.4 1.8 0 1.3-0.6 2-0.6 0.7-1.3 0.9-0.7 0.2-1.3 0.3-0.5 0-0.5 0zm10.5 16.6q-1.3 0-2.3-0.5-0.8-0.5-1.3-1.3-0.5-0.7-0.7-1.2-0.2-0.6-0.2-0.6-0.2-2.1-0.4-4.5 0-2.4-0.1-5.1 0-2.6 0-5.2 0.1-2.7 0.2-5.3 0.2-2.6 0.4-4.9 0 0 0.1-0.4 0.1-0.5 0.5-1 0.5-0.6 1.2-0.9 0.8-0.4 2.1-0.3 1.4 0.1 2.2 0.7 0.8 0.6 1.2 1.3 0.4 0.7 0.5 1.3 0.1 0.5 0.1 0.5 0 1.8-0.1 4.1-0.1 2.3-0.2 4.9 0 2.5 0 5.2 0 2.6 0 5.2 0.1 2.6 0.3 5 0 0-0.1 0.5-0.1 0.4-0.4 1-0.3 0.6-1 1.1-0.7 0.4-2 0.4zm22.2 10.2q-3.4 0.2-6.3-0.4-3-0.6-5.6-1.9 0 0-0.5-0.2-0.5-0.3-1.1-0.8-0.5-0.6-0.8-1.3-0.3-0.9 0.1-1.9 0.3-1 1-1.5 0.7-0.5 1.3-0.5 0.8-0.1 1.2 0 0.6 0.1 0.6 0.1 1.6 0.4 2.9 0.8 1.2 0.3 2.3 0.4 1.1 0.2 2.3 0.2 2.3-0.1 3.5-0.7 1.3-0.7 1.8-2 0.6-1.3 0.5-3.3 0.2-3.2 0.2-5.6 0-2.5-0.2-4.6-0.1-2-0.4-4.1-0.2-2.2-0.5-4.8 0 0 0.2-0.5 0.3-0.5 1.1-0.9 0.7-0.5 2.2-0.5 1.5-0.1 2.4 0.6 1 0.6 1.5 1.3 0.5 0.6 0.5 0.6 0.8 3.6 1.2 6.9 0.4 3.3 0.4 6.8 0 3.5-0.2 7.8-0.5 4.8-3.3 7.3-2.8 2.5-8.3 2.7zm-6.6-10.8q-2-0.9-3.8-2.3-1.7-1.4-2.9-3.2-1.2-1.9-1.6-4.1-0.4-1.8-0.6-3.3 0-1.5 0.1-3.1 0.1-1.6 0.5-3.7 0 0 0.1-0.4 0.2-0.6 0.6-1.2 0.4-0.7 1.2-1.1 0.8-0.5 2.1-0.4 1.5 0.1 2.4 0.6 0.9 0.6 1.3 1.3 0.4 0.8 0.5 1.5 0.1 0.8 0.1 1.2-0.1 0.5-0.1 0.5-0.3 2.9-0.2 4.9 0.1 2 0.5 3.3 0.5 1.2 0.9 1.7 0.8 0.8 2.2 1 1.4 0 3.6-0.8 0.5-0.3 1.1-1 0.8-0.8 1.2-2.1 0.6-1.2 0.6-2.8l6.1-1.5q0.6 3.9-0.1 6.8-0.7 2.9-2.5 5.1-1.4 1.5-3.5 2.6-2.1 1-4.6 1.2-2.5 0.3-5.2-0.7z"/>
</svg>